<?xml version="1.0" encoding="UTF-8" standalone="no"?>
<!-- Created with Inkscape (http://www.inkscape.org/) -->

<svg
   width="1000px"
   height="1000px"
   viewBox="0 0 1000 1000"
   version="1.1"
   id="SVGRoot"
   sodipodi:docname="logo.svg"
   inkscape:version="1.1.2 (0a00cf5339, 2022-02-04)"
   inkscape:export-filename="/home/ettore/Projects/MAMT-RL/.github/logo.png"
   inkscape:export-xdpi="96"
   inkscape:export-ydpi="96"
   xmlns:inkscape="http://www.inkscape.org/namespaces/inkscape"
   xmlns:sodipodi="http://sodipodi.sourceforge.net/DTD/sodipodi-0.dtd"
   xmlns="http://www.w3.org/2000/svg"
   xmlns:svg="http://www.w3.org/2000/svg">
  <sodipodi:namedview
     id="namedview167"
     pagecolor="#505050"
     bordercolor="#eeeeee"
     borderopacity="1"
     inkscape:pageshadow="0"
     inkscape:pageopacity="0"
     inkscape:pagecheckerboard="0"
     inkscape:document-units="px"
     showgrid="false"
     inkscape:zoom="0.53165938"
     inkscape:cx="173.98357"
     inkscape:cy="559.56879"
     inkscape:window-width="1920"
     inkscape:window-height="1016"
     inkscape:window-x="0"
     inkscape:window-y="27"
     inkscape:window-maximized="1"
     inkscape:current-layer="layer1"
     showguides="true"
     inkscape:guide-bbox="true"
     inkscape:connector-spacing="0"
     inkscape:snap-bbox="true"
     inkscape:bbox-nodes="false"
     inkscape:bbox-paths="false"
     inkscape:snap-page="false"
     inkscape:snap-grids="false"
     inkscape:snap-to-guides="true"
     inkscape:snap-nodes="false">
    <sodipodi:guide
       position="154.27996,1000"
       orientation="0,-1"
       id="guide450" />
    <sodipodi:guide
       position="0,728.68008"
       orientation="1,0"
       id="guide452" />
    <sodipodi:guide
       position="1000.0021,7.2368634"
       orientation="1,0"
       id="guide454" />
    <sodipodi:guide
       position="999.30379,-0.01372103"
       orientation="0,-1"
       id="guide456" />
    <sodipodi:guide
       position="0,950.00072"
       orientation="0,-1"
       id="guide458" />
    <sodipodi:guide
       position="50.000746,961.03883"
       orientation="1,0"
       id="guide460" />
    <sodipodi:guide
       position="950.01309,968.84382"
       orientation="1,0"
       id="guide462" />
    <sodipodi:guide
       position="58.145669,50.002931"
       orientation="0,-1"
       id="guide464" />
    <sodipodi:guide
       position="685.1191,249.5195"
       orientation="1,0"
       id="guide32277" />
  </sodipodi:namedview>
  <defs
     id="defs162">
    <rect
       x="571.07249"
       y="949.99707"
       width="378.9406"
       height="398.26762"
       id="rect23452" />
  </defs>
  <g
     inkscape:label="Layer 1"
     inkscape:groupmode="layer"
     id="layer1">
    <rect
       style="fill:#f9f9f9;stroke-width:1.03361"
       id="rect365"
       width="1000.0021"
       height="1000.0137"
       x="-3.5527137e-14"
       y="3.907985e-14" />
    <rect
       style="fill:#ff7f2a"
       id="rect31436-9"
       width="20.000002"
       height="20"
       x="685.01947"
       y="765.40002" />
    <rect
       style="fill:#ff7f2a"
       id="rect31434-6"
       width="100.00001"
       height="20"
       x="685"
       y="725.40002" />
    <rect
       style="fill:#ff7f2a"
       id="rect31434-1"
       width="100.00001"
       height="20"
       x="805"
       y="725.81299" />
    <rect
       style="fill:#ff7f2a"
       id="rect31434-6-4"
       width="100.00001"
       height="20"
       x="685.15198"
       y="805.40002" />
    <rect
       style="fill:#ff7f2a"
       id="rect31434-1-5"
       width="100.00001"
       height="20"
       x="805.15198"
       y="805.81299" />
    <path
       id="path488"
       style="fill:#ff7f2a"
       d="M 204.42383 49.423828 A 155 155 0 0 0 49.423828 204.42383 A 155 155 0 0 0 204.42383 359.42383 A 155 155 0 0 0 359.42383 204.42383 A 155 155 0 0 0 204.42383 49.423828 z M 204.58203 74.423828 A 130 130 0 0 1 334.58203 204.42383 A 130 130 0 0 1 204.58203 334.42383 A 130 130 0 0 1 74.582031 204.42383 A 130 130 0 0 1 204.58203 74.423828 z " />
    <path
       id="path488-5"
       style="fill:#ff7f2a"
       d="M 205 640 A 155 155 0 0 0 50 795 A 155 155 0 0 0 205 950 A 155 155 0 0 0 360 795 A 155 155 0 0 0 205 640 z M 205.1582 664.86133 A 130 130 0 0 1 335.1582 794.86133 A 130 130 0 0 1 205.1582 924.86133 A 130 130 0 0 1 75.158203 794.86133 A 130 130 0 0 1 205.1582 664.86133 z " />
    <path
       id="path488-9"
       style="fill:#ff7f2a"
       d="M 505 350 A 155 155 0 0 0 350 505 A 155 155 0 0 0 505 660 A 155 155 0 0 0 660 505 A 155 155 0 0 0 505 350 z M 505.1582 374.86133 A 130 130 0 0 1 635.1582 504.86133 A 130 130 0 0 1 505.1582 634.86133 A 130 130 0 0 1 375.1582 504.86133 A 130 130 0 0 1 505.1582 374.86133 z " />
    <path
       id="path488-2"
       style="fill:#ff7f2a"
       d="M 795 50 A 155 155 0 0 0 640 205 A 155 155 0 0 0 795 360 A 155 155 0 0 0 950 205 A 155 155 0 0 0 795 50 z M 795.1582 74.861328 A 130 130 0 0 1 925.1582 204.86133 A 130 130 0 0 1 795.1582 334.86133 A 130 130 0 0 1 665.1582 204.86133 A 130 130 0 0 1 795.1582 74.861328 z " />
    <path
       id="rect829"
       style="fill:#ff7f2a;stroke-width:0.880758"
       d="m 315.48633,298.41211 -17.67774,17.67773 97.83203,97.83204 c -0.56722,-1.06164 -1.167,-2.16346 -1.86914,-3.38868 -0.23145,-0.4039 2.58668,-3.27778 2.88282,-3.54882 0.65665,-0.60101 1.35748,-1.15269 2.05859,-1.70118 0.28556,-0.2234 0.59894,-0.40895 0.89844,-0.61328 1.40033,-0.97145 2.76462,-1.99314 4.20898,-2.90039 0.0778,-0.0489 -0.13546,0.12401 -0.19336,0.19531 -0.18364,0.22614 -0.74224,0.89409 -0.52929,0.69532 0.44466,-0.41503 0.81895,-0.89991 1.22851,-1.34961 0.83972,-0.73086 3.20423,-3.09297 4.69531,-3.57617 0.47925,-0.15532 0.96575,-0.28465 1.45508,-0.4043 0.87933,-0.54182 1.75016,-1.13784 2.71289,-1.21485 z m 97.96679,97.9668 c -0.39116,0.16486 -0.77355,0.34826 -1.15234,0.54101 0.4632,-0.0982 0.92639,-0.19791 1.38672,-0.30664 z m -9.18164,8.09179 c -0.34448,0.0265 -0.82499,0.12093 -1.30273,0.21875 0.70461,-0.1012 1.41581,-0.15437 2.14258,-0.15625 -0.24194,-0.0583 -0.5072,-0.0881 -0.83985,-0.0625 z m 0.9004,5.30469 c -0.0148,-0.18777 -0.0369,0.37669 -0.0215,0.56445 0.0127,0.1541 0.0259,0.31282 0.0566,0.46485 -0.006,-0.34351 -0.007,-0.68703 -0.0351,-1.0293 z" />
    <path
       id="rect2652"
       style="fill:#ff7f2a"
       d="m 454.56445,536.27344 c 0.0187,0.10003 0.0396,0.19893 0.0586,0.29883 0.14461,-0.0945 0.29096,-0.18689 0.43554,-0.28125 -0.16495,8.2e-4 -0.32917,-0.0165 -0.49414,-0.0176 z m -71.1914,62.59179 -88.26367,88.26563 17.67773,17.67773 92.28711,-92.28906 c -0.7758,-0.66588 -1.51387,-1.36593 -2.2793,-2.13281 -2.73552,-2.64044 -4.4694,-5.08179 -5.41406,-8.82422 -0.54507,0.0117 -1.09937,0.0129 -1.67188,-0.004 -0.008,-1.9e-4 -0.81199,-0.0199 -0.55078,-0.0234 -0.35875,0.0422 -0.77973,0.0926 -1.0039,0.0996 -0.76179,0.0239 -1.52414,0.0165 -2.28516,-0.0254 -0.50516,-0.0278 -1.00561,-0.1224 -1.50781,-0.1836 -0.80873,-0.17629 -1.62962,-0.3029 -2.42578,-0.5293 -1.60234,-0.45564 -3.14147,-1.14693 -4.5625,-2.03125 z m 12.38867,2.60352 c -0.10179,0.009 -0.32314,0.032 -0.58203,0.0625 0.17991,-0.007 0.36109,-5.5e-4 0.53711,-0.0371 0.12796,-0.0266 0.12655,-0.0322 0.0449,-0.0254 z" />
    <path
       id="rect3068"
       style="fill:#ff7f2a"
       d="m 687.39648,293.84766 -93.08398,93.08398 c 0.0252,0.0178 0.0509,0.0349 0.0762,0.0527 0.41725,0.29458 0.80533,0.57622 1.19727,0.85937 0.26705,0.0745 0.52596,0.1369 0.79883,0.21875 1.11431,0.33423 2.1092,0.98208 3.16406,1.47266 1.65049,1.05766 3.37289,2.00922 4.95117,3.17187 2.19824,1.61933 4.82745,5.20861 6.11914,7.08008 0.41101,0.59549 0.7965,1.60606 1.13281,2.67187 0.3676,0.64364 0.6395,1.30044 0.61524,1.77344 l 92.70703,-92.70703 z" />
    <text
       xml:space="preserve"
       id="text23450"
       style="font-style:normal;font-weight:normal;font-size:40px;line-height:1.25;font-family:sans-serif;white-space:pre;shape-inside:url(#rect23452);fill:#000000;fill-opacity:1;stroke:none" />
    <rect
       style="fill:#ff7f2a"
       id="rect31434-65"
       width="100.00001"
       height="20"
       x="725.01947"
       y="765.40002" />
    <rect
       style="fill:#ff7f2a"
       id="rect31434-0"
       width="100.00001"
       height="20"
       x="685.05243"
       y="845.40002" />
  </g>
</svg>
